<svg version="1.1" id="Layer_1" xmlns="http://www.w3.org/2000/svg" xmlns:xlink="http://www.w3.org/1999/xlink" x="0px" y="0px"
	 width="100%" viewBox="0 0 911 909" enable-background="new 0 0 911 909" xml:space="preserve">
<path fill="#FFFFFF" opacity="1.000000" stroke="none" 
	d="
M912.000000,506.000000 
	C912.000000,640.598328 912.000000,775.196716 912.000000,910.000000 
	C764.310059,910.000000 616.620056,910.000000 468.615234,909.624268 
	C469.902313,908.974121 471.519806,908.769470 473.103546,908.414307 
	C486.908203,905.319031 498.253021,898.194092 507.778503,887.782654 
	C523.727478,870.350159 527.175964,849.930176 522.157776,827.669312 
	C518.750244,812.553284 509.503235,801.181641 497.397430,791.844482 
	C482.056549,780.012207 464.298584,776.993774 445.922546,779.324890 
	C428.924377,781.481262 414.326630,789.530212 403.301331,803.192078 
	C389.150208,820.727173 384.553650,840.516296 390.734894,862.132996 
	C397.223602,884.824890 412.365326,899.644775 434.786865,907.069031 
	C436.644409,907.684143 438.267822,909.006287 440.000000,910.000000 
	C293.741547,910.000000 147.483078,910.000000 1.000000,910.000000 
	C1.000000,776.310120 1.000000,642.620056 1.339552,508.553406 
	C2.643956,509.474579 3.805472,510.670074 4.542049,512.086548 
	C9.705235,522.015564 17.960764,526.959839 29.016092,526.970764 
	C90.682106,527.031555 152.348206,527.000000 214.014282,527.000000 
	C215.835358,527.000000 217.656418,527.000000 219.395767,527.000000 
	C226.378220,507.183533 235.273224,488.581299 246.417755,471.041718 
	C259.736542,450.080170 276.081055,431.818573 294.845123,415.608582 
	C309.675446,402.796844 325.832733,391.999878 343.197296,382.993103 
	C357.863220,375.386047 373.147156,369.345306 389.093689,364.915192 
	C407.377716,359.835693 425.882965,356.316437 444.904175,356.022278 
	C453.418060,355.890594 461.958923,355.603790 470.445435,356.103241 
	C480.402405,356.689240 490.455383,357.328400 500.214142,359.236420 
	C518.765137,362.863525 536.878540,368.000519 554.371033,375.569122 
	C582.172424,387.598206 607.046692,403.913086 628.928589,424.659363 
	C637.613708,432.893707 645.341370,442.219116 652.916016,451.527069 
	C670.150452,472.705139 683.136780,496.337006 691.990967,522.179565 
	C693.220764,525.768982 694.828613,527.133911 698.927063,527.122131 
	C760.259277,526.945496 821.592285,526.943298 882.924805,527.054199 
	C893.513550,527.073303 901.210693,522.425720 906.985352,513.973633 
	C908.755249,511.382996 910.333801,508.661560 912.000000,506.000000 
M796.500000,700.000000 
	C787.186157,691.016663 777.827087,682.079590 768.568298,673.039856 
	C751.435730,656.312500 734.362854,639.523926 717.263123,622.762878 
	C700.639343,606.468323 684.006897,590.182617 667.389771,573.881287 
	C648.988403,555.829651 630.562622,537.802612 612.219360,519.692078 
	C600.598267,508.218414 589.227905,496.488708 577.505249,485.121094 
	C572.328430,480.101044 566.727905,475.473328 561.019836,471.054962 
	C548.864990,461.646271 535.720825,453.784241 521.395020,448.185059 
	C504.188141,441.459778 486.443481,436.668732 467.841736,436.049408 
	C459.162842,435.760468 450.464294,435.888702 441.778687,436.047424 
	C437.512726,436.125336 433.102783,436.111084 429.023254,437.165100 
	C416.011475,440.526917 402.828217,443.569366 390.257324,448.213409 
	C371.121307,455.282867 353.772095,465.888000 339.269135,480.345123 
	C262.319153,557.051819 185.589035,633.979065 108.686676,710.733582 
	C97.934044,721.465576 97.746201,740.347778 108.647804,751.180115 
	C125.788048,768.211548 143.028259,785.149475 159.845261,802.496277 
	C169.845657,812.811768 190.851608,811.945496 200.412628,802.335022 
	C283.741791,718.575134 367.377106,635.119690 450.926483,551.578857 
	C452.195160,550.310303 453.526520,549.104431 454.997070,547.709473 
	C458.396942,550.688843 461.733185,553.357971 464.779663,556.324707 
	C481.098419,572.215942 497.346497,588.179749 513.615845,604.121704 
	C530.480347,620.646667 547.340454,637.176208 564.203979,653.702148 
	C580.710449,669.878235 597.251465,686.019287 613.718872,702.235107 
	C639.328735,727.453857 664.863281,752.749146 690.486816,777.953918 
	C697.934509,785.279907 705.841858,792.153748 713.069031,799.685303 
	C724.420593,811.515198 743.391479,809.487000 753.817322,798.735535 
	C770.717957,781.307190 787.788757,764.043945 804.787659,746.710876 
	C804.904297,746.591919 805.036621,746.484253 805.134155,746.351318 
	C810.564575,738.954468 813.062866,731.099976 811.421814,721.610840 
	C809.771667,712.069153 802.973877,706.721191 796.500000,700.000000 
z"/>
<path fill="#0F4C5C" opacity="1.000000" stroke="none" 
	d="
M912.000000,505.750000 
	C910.333801,508.661560 908.755249,511.382996 906.985352,513.973633 
	C901.210693,522.425720 893.513550,527.073303 882.924805,527.054199 
	C821.592285,526.943298 760.259277,526.945496 698.927063,527.122131 
	C694.828613,527.133911 693.220764,525.768982 691.990967,522.179565 
	C683.136780,496.337006 670.150452,472.705139 652.916016,451.527069 
	C645.341370,442.219116 637.613708,432.893707 628.928589,424.659363 
	C607.046692,403.913086 582.172424,387.598206 554.371033,375.569122 
	C536.878540,368.000519 518.765137,362.863525 500.214142,359.236420 
	C490.455383,357.328400 480.402405,356.689240 470.445435,356.103241 
	C461.958923,355.603790 453.418060,355.890594 444.904175,356.022278 
	C425.882965,356.316437 407.377716,359.835693 389.093689,364.915192 
	C373.147156,369.345306 357.863220,375.386047 343.197296,382.993103 
	C325.832733,391.999878 309.675446,402.796844 294.845123,415.608582 
	C276.081055,431.818573 259.736542,450.080170 246.417755,471.041718 
	C235.273224,488.581299 226.378220,507.183533 219.395767,527.000000 
	C217.656418,527.000000 215.835358,527.000000 214.014282,527.000000 
	C152.348206,527.000000 90.682106,527.031555 29.016092,526.970764 
	C17.960764,526.959839 9.705235,522.015564 4.542049,512.086548 
	C3.805472,510.670074 2.643956,509.474579 1.339552,508.088379 
	C1.000000,475.645782 1.000000,443.291534 1.374142,410.464050 
	C2.435081,409.184692 3.339371,408.481201 3.775609,407.556854 
	C9.144620,396.179932 18.060089,390.936066 30.649155,390.949982 
	C116.811256,391.045319 202.973526,391.000000 289.135742,391.000000 
	C290.904327,391.000000 292.672913,391.000000 294.441498,391.000000 
	C294.732117,390.592560 295.022736,390.185089 295.313385,389.777649 
	C294.026733,388.834106 292.611267,388.024078 291.473450,386.926331 
	C280.000671,375.857208 268.505188,364.810211 257.146759,353.624298 
	C229.758591,326.652100 202.462219,299.586700 175.075928,272.612579 
	C169.536026,267.156036 163.674850,262.026398 158.113510,256.590790 
	C139.562378,238.459106 120.980316,220.356979 102.616524,202.036606 
	C94.260765,193.700607 91.556976,178.088318 98.099358,168.633972 
	C103.572212,160.725204 110.292183,153.597595 116.995323,146.639893 
	C129.134232,134.039993 141.654587,121.806915 154.048477,109.453598 
	C164.931259,98.606453 182.572342,98.739189 193.581345,109.130310 
	C203.114059,118.128006 212.520660,127.260872 221.902863,136.416122 
	C238.560577,152.670914 255.157227,168.988281 271.780090,185.278748 
	C288.522034,201.685867 305.280273,218.076340 322.003174,234.502808 
	C342.411407,254.549194 362.788635,274.627228 383.188812,294.681854 
	C383.924744,295.405304 384.762146,296.025543 386.000000,297.072601 
	C386.000000,294.516357 386.000000,292.702332 386.000000,290.888275 
	C386.000000,207.725906 385.994659,124.563530 386.033295,41.401176 
	C386.034180,39.475418 386.443695,37.533131 386.810211,35.626938 
	C389.460175,21.846037 397.890625,12.283092 409.509674,5.281479 
	C412.705841,3.355472 416.487183,2.400523 420.000000,1.000001 
	C443.020905,1.000000 466.041779,1.000000 489.667877,1.365447 
	C508.808289,5.079897 524.905273,22.734106 524.938782,41.817909 
	C525.082336,123.642387 525.000000,205.467255 525.000000,287.291992 
	C525.000000,289.166840 525.000000,291.041687 525.000000,292.916504 
	C525.746582,293.385315 526.493225,293.854126 527.239807,294.322937 
	C528.256836,292.617493 528.973633,290.612244 530.334045,289.249573 
	C591.205811,228.276382 652.130615,167.356171 713.076538,106.457100 
	C714.564575,104.970192 716.217590,103.536110 718.038330,102.512527 
	C730.030762,95.770561 744.451355,98.010353 754.416870,108.007355 
	C771.670654,125.315582 788.805298,142.746674 805.754700,160.352661 
	C814.933289,169.886795 814.367615,188.113693 805.050903,197.432602 
	C742.014954,260.483917 678.973938,323.530182 615.911499,386.554962 
	C614.674011,387.791687 613.154907,388.746582 611.767151,389.832947 
	C612.025391,390.221954 612.283630,390.610992 612.541870,391.000000 
	C614.304016,391.000000 616.066223,391.000000 617.828369,391.000000 
	C706.485718,391.000000 795.143066,390.996399 883.800415,391.006836 
	C890.967896,391.007660 896.862854,393.734863 902.261597,398.562805 
	C907.645874,403.377777 909.523438,409.768097 912.000000,416.000000 
	C912.000000,444.354218 912.000000,472.708466 911.667114,501.625122 
	C911.556213,503.125031 911.778076,504.062531 912.000000,505.000000 
	C912.000000,505.000000 912.000000,505.500000 912.000000,505.750000 
z"/>
<path fill="#FFFFFF" opacity="1.000000" stroke="none" 
	d="
M912.000000,415.531342 
	C909.523438,409.768097 907.645874,403.377777 902.261597,398.562805 
	C896.862854,393.734863 890.967896,391.007660 883.800415,391.006836 
	C795.143066,390.996399 706.485718,391.000000 617.828369,391.000000 
	C616.066223,391.000000 614.304016,391.000000 612.541870,391.000000 
	C612.283630,390.610992 612.025391,390.221954 611.767151,389.832947 
	C613.154907,388.746582 614.674011,387.791687 615.911499,386.554962 
	C678.973938,323.530182 742.014954,260.483917 805.050903,197.432602 
	C814.367615,188.113693 814.933289,169.886795 805.754700,160.352661 
	C788.805298,142.746674 771.670654,125.315582 754.416870,108.007355 
	C744.451355,98.010353 730.030762,95.770561 718.038330,102.512527 
	C716.217590,103.536110 714.564575,104.970192 713.076538,106.457100 
	C652.130615,167.356171 591.205811,228.276382 530.334045,289.249573 
	C528.973633,290.612244 528.256836,292.617493 527.239807,294.322937 
	C526.493225,293.854126 525.746582,293.385315 525.000000,292.916504 
	C525.000000,291.041687 525.000000,289.166840 525.000000,287.291992 
	C525.000000,205.467255 525.082336,123.642387 524.938782,41.817909 
	C524.905273,22.734106 508.808289,5.079897 490.136536,1.365447 
	C630.593140,1.000000 771.186218,1.000000 912.000000,1.000000 
	C912.000000,139.020813 912.000000,277.041748 912.000000,415.531342 
z"/>
<path fill="#FFFFFF" opacity="1.000000" stroke="none" 
	d="
M419.531342,1.000001 
	C416.487183,2.400523 412.705841,3.355472 409.509674,5.281479 
	C397.890625,12.283092 389.460175,21.846037 386.810211,35.626938 
	C386.443695,37.533131 386.034180,39.475418 386.033295,41.401176 
	C385.994659,124.563530 386.000000,207.725906 386.000000,290.888275 
	C386.000000,292.702332 386.000000,294.516357 386.000000,297.072601 
	C384.762146,296.025543 383.924744,295.405304 383.188812,294.681854 
	C362.788635,274.627228 342.411407,254.549194 322.003174,234.502808 
	C305.280273,218.076340 288.522034,201.685867 271.780090,185.278748 
	C255.157227,168.988281 238.560577,152.670914 221.902863,136.416122 
	C212.520660,127.260872 203.114059,118.128006 193.581345,109.130310 
	C182.572342,98.739189 164.931259,98.606453 154.048477,109.453598 
	C141.654587,121.806915 129.134232,134.039993 116.995323,146.639893 
	C110.292183,153.597595 103.572212,160.725204 98.099358,168.633972 
	C91.556976,178.088318 94.260765,193.700607 102.616524,202.036606 
	C120.980316,220.356979 139.562378,238.459106 158.113510,256.590790 
	C163.674850,262.026398 169.536026,267.156036 175.075928,272.612579 
	C202.462219,299.586700 229.758591,326.652100 257.146759,353.624298 
	C268.505188,364.810211 280.000671,375.857208 291.473450,386.926331 
	C292.611267,388.024078 294.026733,388.834106 295.313385,389.777649 
	C295.022736,390.185089 294.732117,390.592560 294.441498,391.000000 
	C292.672913,391.000000 290.904327,391.000000 289.135742,391.000000 
	C202.973526,391.000000 116.811256,391.045319 30.649155,390.949982 
	C18.060089,390.936066 9.144620,396.179932 3.775609,407.556854 
	C3.339371,408.481201 2.435081,409.184692 1.374142,409.995422 
	C1.000000,273.738708 1.000000,137.477402 1.000000,1.000000 
	C140.354156,1.000000 279.708405,1.000000 419.531342,1.000001 
z"/>
<path fill="#0F4C5C" opacity="1.000000" stroke="none" 
	d="
M440.468658,910.000000 
	C438.267822,909.006287 436.644409,907.684143 434.786865,907.069031 
	C412.365326,899.644775 397.223602,884.824890 390.734894,862.132996 
	C384.553650,840.516296 389.150208,820.727173 403.301331,803.192078 
	C414.326630,789.530212 428.924377,781.481262 445.922546,779.324890 
	C464.298584,776.993774 482.056549,780.012207 497.397430,791.844482 
	C509.503235,801.181641 518.750244,812.553284 522.157776,827.669312 
	C527.175964,849.930176 523.727478,870.350159 507.778503,887.782654 
	C498.253021,898.194092 486.908203,905.319031 473.103546,908.414307 
	C471.519806,908.769470 469.902313,908.974121 468.150238,909.624268 
	C458.979095,910.000000 449.958221,910.000000 440.468658,910.000000 
z"/>
<path fill="#FFFFFF" opacity="1.000000" stroke="none" 
	d="
M912.000000,504.625000 
	C911.778076,504.062531 911.556213,503.125031 911.667114,502.093750 
	C912.000000,502.750000 912.000000,503.500000 912.000000,504.625000 
z"/>
<path fill="#FF7D00" opacity="1.000000" stroke="none" 
	d="
M796.750000,700.250000 
	C802.973877,706.721191 809.771667,712.069153 811.421814,721.610840 
	C813.062866,731.099976 810.564575,738.954468 805.134155,746.351318 
	C805.036621,746.484253 804.904297,746.591919 804.787659,746.710876 
	C787.788757,764.043945 770.717957,781.307190 753.817322,798.735535 
	C743.391479,809.487000 724.420593,811.515198 713.069031,799.685303 
	C705.841858,792.153748 697.934509,785.279907 690.486816,777.953918 
	C664.863281,752.749146 639.328735,727.453857 613.718872,702.235107 
	C597.251465,686.019287 580.710449,669.878235 564.203979,653.702148 
	C547.340454,637.176208 530.480347,620.646667 513.615845,604.121704 
	C497.346497,588.179749 481.098419,572.215942 464.779663,556.324707 
	C461.733185,553.357971 458.396942,550.688843 454.997070,547.709473 
	C453.526520,549.104431 452.195160,550.310303 450.926483,551.578857 
	C367.377106,635.119690 283.741791,718.575134 200.412628,802.335022 
	C190.851608,811.945496 169.845657,812.811768 159.845261,802.496277 
	C143.028259,785.149475 125.788048,768.211548 108.647804,751.180115 
	C97.746201,740.347778 97.934044,721.465576 108.686676,710.733582 
	C185.589035,633.979065 262.319153,557.051819 339.269135,480.345123 
	C353.772095,465.888000 371.121307,455.282867 390.257324,448.213409 
	C402.828217,443.569366 416.011475,440.526917 429.023254,437.165100 
	C433.102783,436.111084 437.512726,436.125336 441.778687,436.047424 
	C450.464294,435.888702 459.162842,435.760468 467.841736,436.049408 
	C486.443481,436.668732 504.188141,441.459778 521.395020,448.185059 
	C535.720825,453.784241 548.864990,461.646271 561.019836,471.054962 
	C566.727905,475.473328 572.328430,480.101044 577.505249,485.121094 
	C589.227905,496.488708 600.598267,508.218414 612.219360,519.692078 
	C630.562622,537.802612 648.988403,555.829651 667.389771,573.881287 
	C684.006897,590.182617 700.639343,606.468323 717.263123,622.762878 
	C734.362854,639.523926 751.435730,656.312500 768.568298,673.039856 
	C777.827087,682.079590 787.186157,691.016663 796.750000,700.250000 
z"/>
</svg>